<?xml version="1.0" ?><!DOCTYPE svg  PUBLIC '-//W3C//DTD SVG 1.1//EN'  'http://www.w3.org/Graphics/SVG/1.1/DTD/svg11.dtd'><svg enable-background="new 0 0 128 128" height="128px" id="Layer_1" version="1.1" viewBox="0 0 128 128" width="128px" xml:space="preserve" xmlns="http://www.w3.org/2000/svg" xmlns:xlink="http://www.w3.org/1999/xlink"><g><circle cx="64" cy="64" fill="#CF4946" r="62"/><g><g><path d="M99.434,37.425h-10.45c-0.95,0-0.95-1.544-0.95-1.544l-0.035,1.544h-9.465     c-5.247,0-9.484,4.253-9.484,9.5v21.85c0,5.247,4.245,12.35,9.492,12.35l8.531-2.371l-0.027,1.104c0,0,0.971-0.08,1.03-0.633     c0.059-0.554,0.618-0.922,0.618-0.922l10.74-3.828c5.304-1.425,6.967-3.8,7.6-8.55l1.9-19     C109.409,41.146,104.681,37.425,99.434,37.425z M87.185,73.793l-9.059,2.518C76.3,75.774,73.8,71.974,73.8,68.775v-21.85     c0-2.619,2.115-4.75,4.734-4.75h9.358L87.185,73.793z M104.238,48.106l-1.864,16.89c-0.674,3.002-0.802,3.699-4.173,4.891     l-9.499,3.485c-0.632,0.176-0.651-0.798-0.651-0.798s0-28.54,0-29.371s0.934-1.029,0.934-1.029h10.45     c1.611,0,3.192,0.684,4.109,1.675C104.189,44.548,104.738,45.104,104.238,48.106z" fill="#FFFFFF"/><g opacity="0.25"><path d="M88.984,42.175h1.9l-0.95-4.75h-0.95c-0.95,0-0.95-1.544-0.95-1.544l-0.035,1.544h-9.465      c-5.247,0-9.5,4.253-9.5,9.5v21.85c0,5.247,4.253,12.35,9.5,12.35l8.535-2.371l-0.025,1.104c0,0,0.972-0.08,1.031-0.633      c0.059-0.554,0.618-0.922,0.618-0.922l2.19-0.781l-0.94-4.608l-1.25,0.458c-0.632,0.176-0.66-0.798-0.66-0.798s0-28.54,0-29.371      S88.984,42.175,88.984,42.175z M87.181,73.793l-9.063,2.518c-1.826-0.537-4.333-4.337-4.333-7.536v-21.85      c0-2.619,2.131-4.75,4.75-4.75h9.358L87.181,73.793z" fill="#070707"/></g></g><g><path d="M45.028,98h14.487h15.428c0.461-1,1.938-1.075,1.938-1.075L42.434,96.76     C43.384,96.76,44.872,97,45.028,98z" fill="#FFFFFF"/><path d="M45.028,98h14.487h15.428c0.461-1,1.938-1.075,1.938-1.075L42.434,96.76     C43.384,96.76,44.872,97,45.028,98z" fill="#0A0A0A" opacity="0.25"/><path d="M86.287,31H33.053C31.031,31,31,31.22,31,32.475v45.999C31,89.12,35.41,97,46.081,97h27.703h0.153     C84.608,97,88,89.12,88,78.475V32.475C88,31.22,87.717,31,86.287,31z" fill="#FFFFFF"/></g><rect fill="#ECBE4A" height="2" width="57" x="31" y="37"/><rect fill="#CF4946" height="2" width="57" x="31" y="40"/><path d="M86.287,31H84v38.25c0,13.734-7.483,24.225-28.383,24.225    c-10.046,0-19.322-3.112-24.417-11.168C32.208,90.943,36.782,97,46.081,97h27.703h0.153C84.608,97,88,89.12,88,78.475V32.475    C88,31.22,87.717,31,86.287,31z" fill="#0A0A0A" opacity="0.15"/></g></g></svg>