<?xml version="1.0" ?><!DOCTYPE svg  PUBLIC '-//W3C//DTD SVG 1.1//EN'  'http://www.w3.org/Graphics/SVG/1.1/DTD/svg11.dtd'><svg enable-background="new 0 0 128 128" height="128px" id="Layer_1" version="1.1" viewBox="0 0 128 128" width="128px" xml:space="preserve" xmlns="http://www.w3.org/2000/svg" xmlns:xlink="http://www.w3.org/1999/xlink"><g><circle cx="64" cy="64" fill="#CE4946" r="62.5"/><g><path d="M61,103c0,1.105-0.421,2-1.557,2H26.557c-1.136,0-1.557-0.895-1.557-2V37c0-1.105,0.421-2,1.557-2h32.886    C60.579,35,61,35.895,61,37V103z" fill="#E2DFD5"/><rect fill="#433F3E" height="5" width="38" x="24" y="90"/><rect fill="#433F3E" height="5" width="38" x="24" y="38"/><path d="M58.04,34h-30c-0.724,1.061-1.655,1-1.655,1h17.312l15.917,0.062C59.615,35.062,58.795,35.061,58.04,34z" fill="#E2DFD5"/><path d="M58.04,34h-30c-0.724,1.061-1.655,1-1.655,1h17.312l15.917,0.062    C59.615,35.062,58.795,35.061,58.04,34z" fill="#070707" opacity="0.1"/><path d="M57.386,32.594C56.99,31.018,57.4,22,56.533,22c-1.115,0-12.881,0-12.881,0s-13.196,0-14.311,0    c-0.867,0-0.348,9.018-0.743,10.594C28.446,33.199,28.233,33.655,28,34h30C57.757,33.655,57.538,33.199,57.386,32.594z" fill="#E2DFD5"/><path d="M58.983,31.743c-0.026,0.552-0.494,0.978-1.045,0.952L27.97,31.302c-0.552-0.026-0.978-0.494-0.952-1.045    l0,0c0.026-0.552,0.494-0.978,1.045-0.952l29.968,1.394C58.582,30.724,59.008,31.192,58.983,31.743L58.983,31.743z" fill="#E2DFD5"/><path d="M58.983,27.743c-0.026,0.552-0.494,0.978-1.045,0.952L27.97,27.302c-0.552-0.026-0.978-0.494-0.952-1.045    l0,0c0.026-0.552,0.494-0.978,1.045-0.952l29.968,1.394C58.582,26.724,59.008,27.192,58.983,27.743L58.983,27.743z" fill="#E2DFD5"/><path d="M58.983,31.743c-0.026,0.552-0.494,0.978-1.045,0.952L27.97,31.302    c-0.552-0.026-0.978-0.494-0.952-1.045l0,0c0.026-0.552,0.494-0.978,1.045-0.952l29.968,1.394    C58.582,30.724,59.008,31.192,58.983,31.743L58.983,31.743z" fill="#070707" opacity="0.1"/><path d="M58.983,27.743c-0.026,0.552-0.494,0.978-1.045,0.952L27.97,27.302    c-0.552-0.026-0.978-0.494-0.952-1.045l0,0c0.026-0.552,0.494-0.978,1.045-0.952l29.968,1.394    C58.582,26.724,59.008,27.192,58.983,27.743L58.983,27.743z" fill="#070707" opacity="0.1"/><path d="M62,43v-5h-1v-1c0-1.105-0.421-2-1.557-2h-0.143c-0.307-0.097-0.795-0.347-1.259-1H58    c-0.232-0.328-0.437-0.766-0.588-1.329l0.525,0.024c0.552,0.026,1.02-0.401,1.045-0.952s-0.401-1.02-0.952-1.045l-0.809-0.038    c-0.021-0.602-0.036-1.281-0.049-2l0.765,0.036c0.552,0.026,1.02-0.401,1.045-0.952s-0.401-1.02-0.952-1.045l-0.896-0.042    C57.079,24.224,56.963,22,56.533,22c-0.35,0-1.752,0-3.509,0c0.057,0.772,0.085,3.508,0.107,4.47l0.953,0.072    c0.552,0.026,0.915,0.456,0.889,1.008s-0.461,0.987-1.013,0.961l-0.814-0.038c0.013,0.719,0.048,1.399,0.069,2.001l0.806,0.068    c0.552,0.026,0.974,0.429,0.948,0.981c-0.026,0.552-0.456,1.014-1.007,0.988l-0.584-0.027C53.528,33.046,53.768,33.672,54,34h0.04    c0.465,0.653,0.952,0.903,1.259,1h0.143C56.579,35,57,35.895,57,37v1h1v5h-1v47h1v5h-1v6c0,1.105-0.421,2-1.557,2H25    c0,1.105,0.421,2,1.557,2h32.886c1.136,0,1.557-0.895,1.557-2v-8h1v-5h-1V43H62z" fill="#070707" opacity="0.1"/></g><g><path d="M103,77v18c0,5.523-4.477,10-10,10H77c-5.523,0-10-4.477-10-10V77" fill="#E2DFD5"/><rect fill="#433F3E" height="3" width="38" x="66" y="75"/><path d="M100,75v3h-1v15c0,5.523-3.25,10.75-10,11h-7c-6-0.083-10.612-1.109-11.374-1.295    C72.357,104.138,74.577,105,77,105h16c5.523,0,10-4.477,10-10V78h1v-3H100z" fill="#070707" opacity="0.1"/></g></g></svg>